:SAMPLES-PER-SECOND 30
:FULLY-SPECIFIED
:DEGREES
194
root  -4.10259 40.9883 0.467752 -0.320038 -74.1826 3.86597
RightUpLeg  4.26113 -2.15247 -1.51807
RightLeg  -7.91877 -33.6435 4.92591
RightFoot  0.710656 -0.272921 2.65447
RightToes  -3.13588e-008 1.75238e-005 3.56266e-009
Spine  -4.10317 0.84781 -3.60597
Spine1  -1.60854 0.384493 4.73179
HEad  0.649904 -3.50566 5.23223
LeftShoulder1  0.603031 1.10038 -18.4865
LeftArm  -62.5369 -46.4839 -35.1961
LeftForeArm  21.9592 -22.9841 -3.66018
LeftHand  -0.356534 -0.160311 7.532
RightShoulder  2.02842 3.30071 23.6833
RightArm  -19.6924 -4.75327 44.941
RightForeArm  20.3264 42.5481 8.92169
RightHand  -0.409642 6.87196 -4.22051
LeftUpLeg  -0.560033 0.190982 2.38833
LeftLeg  -4.85102 0.877807 -0.602999
LeftFoot  2.56869 0.388868 -3.28435
LeftToes  4.76812e-008 1.47286e-008 1.3089e-009
195
root  -4.08091 40.9897 0.444038 0.0545959 -74.2886 3.47858
RightUpLeg  4.23135 -2.08802 -1.38376
RightLeg  -7.98769 -33.6069 5.00119
RightFoot  0.735844 -0.262865 2.54356
RightToes  -3.13588e-008 1.75238e-005 3.56266e-009
Spine  -3.61099 0.968738 -3.71394
Spine1  -2.16747 0.498508 4.84671
HEad  0.590515 -4.17262 5.07381
LeftShoulder1  0.681864 0.807828 -18.7171
LeftArm  -62.7378 -46.5019 -34.496
LeftForeArm  22.0269 -23.0467 -3.65201
LeftHand  -0.365567 -0.140688 7.74802
RightShoulder  1.96023 3.11855 23.4654
RightArm  -19.8621 -5.02187 45.0935
RightForeArm  20.6974 42.7735 8.97277
RightHand  -0.388089 6.739 -4.05485
LeftUpLeg  -0.629021 0.18809 2.48722
LeftLeg  -4.76798 0.982106 -0.501671
LeftFoot  2.55075 0.394766 -3.36472
LeftToes  4.76812e-008 1.47286e-008 1.3089e-009
196
root  -4.05987 40.9903 0.418473 0.228119 -74.3685 3.27646
RightUpLeg  4.21384 -2.02148 -1.2914
RightLeg  -8.01433 -33.6094 5.01556
RightFoot  0.750706 -0.262509 2.57911
RightToes  -3.13588e-008 1.75238e-005 3.56266e-009
Spine  -3.27188 0.958748 -3.81668
Spine1  -2.52581 0.516861 4.72123
HEad  0.579808 -3.99326 5.24651
LeftShoulder1  0.693479 0.740878 -18.4995
LeftArm  -60.7962 -45.7099 -34.0738
LeftForeArm  20.1834 -25.1295 -4.32541
LeftHand  -0.344185 -0.0297633 7.44355
RightShoulder  1.96509 3.10363 23.6128
RightArm  -19.7296 -5.16376 44.9099
RightForeArm  20.8117 43.1081 9.07893
RightHand  -0.378334 6.68029 -3.97813
LeftUpLeg  -0.684303 0.215556 2.56858
LeftLeg  -4.67751 1.02482 -0.457609
LeftFoot  2.53183 0.406492 -3.53788
LeftToes  4.76812e-008 1.47286e-008 1.3089e-009
197
root  -4.04351 40.9908 0.390413 0.258148 -74.3658 3.2207
RightUpLeg  4.21582 -2.02393 -1.26012
RightLeg  -8.04889 -33.5916 5.08694
RightFoot  0.755766 -0.251745 2.44142
RightToes  -3.13588e-008 1.75238e-005 3.56266e-009
Spine  -3.04959 0.841167 -4.06006
Spine1  -2.62545 0.420352 4.66112
HEad  0.414515 -3.83498 5.60612
LeftShoulder1  0.614788 1.03535 -18.2992
LeftArm  -58.1315 -44.5157 -35.1253
LeftForeArm  18.5867 -29.6557 -5.39845
LeftHand  -0.35911 -0.254648 7.39592
RightShoulder  2.00466 3.18352 23.8632
RightArm  -19.6238 -5.0669 44.7526
RightForeArm  20.5525 43.4897 9.22925
RightHand  -0.39794 6.6394 -4.1785
LeftUpLeg  -0.753385 0.260222 2.62317
LeftLeg  -4.56493 0.977361 -0.453884
LeftFoot  2.50971 0.408781 -3.56558
LeftToes  4.76812e-008 1.47286e-008 1.3089e-009
198
root  -4.02792 40.991 0.368443 0.0881042 -74.5271 3.40543
RightUpLeg  4.0373 -2.01234 -1.26287
RightLeg  -7.74754 -33.4581 4.87318
RightFoot  0.680537 -0.245988 2.37268
RightToes  -3.13588e-008 1.75238e-005 3.56266e-009
Spine  -2.78931 0.880317 -4.33099
Spine1  -2.78855 0.480424 4.64894
HEad  -0.0269564 -3.96408 5.83489
LeftShoulder1  0.621547 1.03754 -18.6145
LeftArm  -54.7019 -42.3957 -36.401
LeftForeArm  16.314 -37.3253 -7.51748
LeftHand  -0.504145 -0.523519 10.0654
RightShoulder  1.97204 3.10192 23.7329
RightArm  -19.3078 -5.12178 44.8245
RightForeArm  20.3118 44.1767 9.48757
RightHand  -0.422853 6.53381 -4.45151
LeftUpLeg  -0.748911 0.222303 2.59414
LeftLeg  -4.60681 1.16134 -0.448761
LeftFoot  2.54441 0.406267 -3.51935
LeftToes  4.76812e-008 1.47286e-008 1.3089e-009
199
root  -4.02167 40.9911 0.352578 0.25885 -74.6374 3.26422
RightUpLeg  3.99307 -1.97775 -1.21177
RightLeg  -7.79217 -33.3777 4.91296
RightFoot  0.689624 -0.245337 2.38233
RightToes  -3.13588e-008 1.75238e-005 3.56266e-009
Spine  -2.32367 0.859885 -5.02623
Spine1  -3.1923 0.395264 5.33852
HEad  -0.53914 -3.49191 5.76609
LeftShoulder1  0.716822 0.715279 -19.1389
LeftArm  -48.1612 -36.677 -37.1804
LeftForeArm  13.6658 -51.6089 -13.3797
LeftHand  -0.553759 -0.275897 11.4418
RightShoulder  1.90845 2.93561 23.5057
RightArm  -19.1442 -5.04896 44.9951
RightForeArm  21.256 44.983 9.71417
RightHand  -0.416963 6.57191 -4.38196
LeftUpLeg  -0.769759 0.231943 2.6512
LeftLeg  -4.63875 1.23746 -0.424747
LeftFoot  2.54667 0.407028 -3.52431
LeftToes  4.76812e-008 1.47286e-008 1.3089e-009
200
root  -4.01619 40.9911 0.346693 0.792969 -74.8444 2.92361
RightUpLeg  3.80363 -1.88166 -1.11457
RightLeg  -7.96444 -33.2728 5.03968
RightFoot  0.781288 -0.238707 2.29798
RightToes  -3.13588e-008 1.75238e-005 3.56266e-009
Spine  -1.65931 0.665876 -5.76263
Spine1  -3.99956 0.131451 6.10397
HEad  -1.19814 -2.38126 5.8688
LeftShoulder1  0.850214 0.308093 -20.1427
LeftArm  -43.7279 -29.2377 -37.9881
LeftForeArm  26.3398 -69.5981 -30.676
LeftHand  -0.64717 -1.72214 10.6693
RightShoulder  1.88863 2.88932 23.4015
RightArm  -18.8463 -5.00794 45.0405
RightForeArm  21.6589 46.3438 10.1995
RightHand  -0.4333 6.73437 -4.48812
LeftUpLeg  -1.01594 0.287519 2.76596
LeftLeg  -4.56648 1.38094 -0.433428
LeftFoot  2.53177 0.406336 -3.50626
LeftToes  4.76812e-008 1.47286e-008 1.3089e-009
201
root  -4.01862 40.991 0.350712 1.21259 -75.3755 2.72559
RightUpLeg  3.58695 -1.74112 -1.03546
RightLeg  -8.15579 -32.8847 5.07159
RightFoot  0.930727 -0.227397 2.13936
RightToes  -3.13588e-008 1.75238e-005 3.56266e-009
Spine  -1.61628 0.43702 -6.26432
Spine1  -3.85178 -0.121588 6.36758
HEad  -2.4476 -1.74712 6.38631
LeftShoulder1  0.882293 0.307288 -21.1802
LeftArm  -40.7026 -23.0321 -38.2871
LeftForeArm  87.2232 -79.4994 -94.8643
LeftHand  -0.44436 -1.67283 7.53111
RightShoulder  1.9894 3.15287 23.7673
RightArm  -18.5937 -4.7704 44.8339
RightForeArm  21.6089 47.9526 10.8451
RightHand  -0.409172 6.91431 -4.20412
LeftUpLeg  -1.1263 0.355846 2.85697
LeftLeg  -4.67558 1.8395 -0.50042
LeftFoot  2.52067 0.406136 -3.49484
LeftToes  4.76812e-008 1.47286e-008 1.3089e-009
